<?xml version="1.0" encoding="UTF-8"?><svg id="Layer_2" xmlns="http://www.w3.org/2000/svg" viewBox="0 0 200.34 188.14"><g id="Layer_1-2"><path d="M153.39,1.08c1.74,.64,3.75,1.42,5.94,1.51,1.75,.08,3.46,.14,5.17-.46,1.12-.4,2.37-.47,3.57-.6,1.37-.15,2.59,.09,3.71,1.11,1.18,1.07,2.6,1.89,3.96,2.75,.43,.27,1.03,.45,1.53,.39,2.1-.26,3.98,.43,5.86,1.18,1.39,.55,2.6,1.39,3.64,2.48,1.59,1.66,2.92,3.51,4.16,5.44,.29,.45,.54,.95,.66,1.46,.31,1.34,.94,2.51,1.66,3.65,.44,.7,.55,1.49,.76,2.26,.87,3.12-.27,5.82-1.7,8.42-.55,1-.8,1.95-.81,3.05-.02,2.72,.69,5.33,1.1,7.98,.06,.38,.26,.76,.48,1.07,1.09,1.53,2.16,3.07,3.33,4.54,.4,.51,1.04,.83,1.57,1.24,.77,.6,1.31,1.36,1.47,2.33,.29,1.72,.6,3.45,.84,5.18,.14,1.08,.05,2.13-.52,3.12-.88,1.53-1.45,3.19-1.71,4.93-.22,1.43-.95,2.51-2.14,3.27-.68,.44-1.53,.76-1.82,1.53-.57,1.51-1.85,2.64-2.18,4.29-.24,1.18-.62,2.34-.96,3.5-.24,.83-.12,1.59,.44,2.26,.26,.31,.53,.61,.79,.92,.46,.57,.66,1.25,.23,1.86-.68,.96-.57,1.94-.51,3.04,.08,1.66,.51,3.06,1.3,4.54,1.39,2.59,2.17,5.47,3.09,8.27,.27,.83,.04,1.87-.1,2.79-.17,1.05-.5,2.08-.75,3.11,.72,2.02,.99,4.18,2.11,6.05,.2,.33,.29,.77,.29,1.16,.03,2.19,.7,4.23,1.36,6.27,.3,.93,.32,1.81-.06,2.75-.39,.99-.63,2.04-.93,3.04-1.04,.88-2.06,1.74-3.07,2.61-.68,.59-1.48,.67-2.27,.4-.76-.26-1.44-.72-2.19-1.02-1.56-.64-3.15-.61-4.72,0-.36,.14-.78,.34-.97,.64-.8,1.25-1.99,1.9-3.38,1.89-2.09,0-3.46,1.33-5,2.36-.84,.56-.96,1.84-.15,2.44,1.63,1.2,2.14,2.73,1.52,4.57-.41,1.22,.16,2.43-.15,3.6-.31,1.16-.89,2.27-1.07,3.45-.16,1.03,.06,2.13,.14,3.19,.1,1.23,.43,2.37,1.32,3.3,.57,.6,.76,1.38,.87,2.21,.44,3.34,1.13,6.62,2.59,9.7,.34,.71,.39,1.56,.59,2.34,.32,1.29,.65,2.58,.99,3.92-.34,.79-1.03,1.24-1.88,1.19-1.48-.09-2.6,.48-3.58,1.5-.65,.68-1.44,1.25-1.96,2.02-1.14,1.69-2.67,3-4.04,4.46-1.71,1.83-3.75,3.03-6.21,3.48-2.41,.44-4.45,1.86-6.8,2.49-.73,.19-1.36,.85-1.98,1.35-1.48,1.17-3.03,2.22-4.67,3.15-.76,.43-1.98-.02-2.35-.94-.4-.99-.57-2.07-.96-3.07-.18-.47-.56-.93-.97-1.23-.75-.55-1.59-.99-2.39-1.47-1.18-.7-2.33-1.11-3.8-.64-2.07,.67-3.96-.29-5.78-1.16-.72-.34-1.35-.89-2.05-1.29-1.25-.71-2.55-.77-3.87-.16-.49,.23-.97,.46-1.45,.71-.86,.47-1.76,.65-2.72,.37-.96-.28-1.83-.12-2.7,.38-.57,.33-1.22,.56-1.86,.71-1.96,.46-3.93,.88-5.91,1.28-1.4,.29-2.63,0-3.71-1.04-.69-.67-1.26-1.38-1.75-2.19-.77-1.27-.87-2.52-.06-3.8,.29-.45,.58-.9,.86-1.36,.37-.61,.41-1.27,.25-1.94-.38-1.57-.74-3.14-1.18-4.68-.73-2.52-1.05-4.84-.91-7.08,.03-.53,.1-1.1-.07-1.58-.35-.99-.49-2.18-1.62-2.66-1.43-.61-2.94-.59-4.32,.06-1.08,.51-2.05,1.28-2.98,2.04-1.15,.93-2.25,1.93-3.29,2.98-1.21,1.22-2.66,1.78-4.33,1.88-.54,.03-1.08,.04-1.61,.13-.39,.06-.8,.19-.94,.64-.4,1.3-1.33,1.94-2.6,2.24-.51,.12-.99,.41-1.48,.64-.64,.29-1.28,.32-1.96,.17-.92-.2-1.84-.45-2.77-.5-1.86-.1-3.31-1-4.65-2.17-.3-.26-.53-.61-.8-.9-1.83-2-4.01-3.56-6.33-4.94-.69-.41-1.58-.7-2-1.3-1.01-1.47-2.6-1.84-4.06-2.46-.6-.25-1.32-.41-1.96-.36-1.47,.12-2.93,.22-4.42,.15-.48-.02-1,.32-1.45,.59-.69,.41-1.3,.97-2.02,1.32-1.09,.52-2.23,.89-3.49,.82-2.07-.11-3.98,.41-5.75,1.52-1.54,.97-3.27,1.1-5.04,.79-.66-.12-1.33-.18-2-.28-.69-.1-1.27-.41-1.74-.93-1-1.09-2.01-2.16-3.02-3.24-.59-1.85-2.2-3-3.13-4.61-.33-.57-.63-1.21-.74-1.84-.26-1.59-.44-3.2-.57-4.8-.1-1.2-.18-2.43-.08-3.62,.35-4.17-1.01-7.95-2.59-11.67-1.21-2.85-2.65-5.58-4.51-8.07-.91-1.22-1.54-2.51-1.01-4.12,.16-.49,.1-1.06,.1-1.6,0-.26-.09-.53-.19-.78-.95-2.3-3.98-3.74-6.34-3.01-.51,.16-1,.4-1.51,.57-.84,.28-1.6,.1-2.21-.53-.85-.87-1.69-1.74-2.09-2.93-.96-2.85-2.77-5.18-4.58-7.52-.65-.85-1.22-1.77-1.84-2.63-1.18-1.63-1.21-3.2,.17-4.75,.26-.3,.47-.66,.63-1.03,.89-2.08,1.04-4.44,2.37-6.35,.52-2.09,1.05-4.18,1.03-6.35-.01-1.52,.41-2.92,1.14-4.23,.72-1.31,1.12-2.73,1.55-4.15,.34-1.1,.37-2.1-.37-3.05-.17-.21-.35-.44-.41-.69-.7-2.72-1.67-5.36-1.88-8.22-.14-1.93,.5-3.38,1.71-4.74,1.25-1.41,2.51-2.8,3.69-4.27,1.27-1.58,2.37-3.28,2.65-5.35,.13-.97,.53-1.8,1.02-2.6,.85-1.4,1.49-2.9,1.64-4.52,.21-2.2,1.37-4.06,2.01-6.1,.33-1.04,1.16-1.73,2.14-2.31,1.63-.98,3.44-1.51,5.18-2.22,1.13-.46,2.45-.51,3.56,.02,1.4,.68,2.88,.59,4.33,.8,.66,.09,1.37-.06,2.01,.11,2.41,.62,4.81,.34,7.45,.02,.42,.16,1.06,.34,1.65,.65,1.46,.75,2.99,1.15,4.64,1.19,.93,.02,1.86,.29,2.79,.4,.66,.08,1.35,.19,1.99,.09,1.86-.29,3.7-.45,5.59-.12,.73,.13,1.62-.13,2.33-.45,1.41-.65,2.82-.82,4.32-.51,.26,.05,.53,.07,.8,.1,1.84,.2,3.69-.14,5.5,.87,1.49,.84,3.32,1.05,4.8,2.04,.55,.37,1.22,.55,1.84,.81,2.47,1.04,4.94,2.1,6.58,4.39,2.68,1.64,3.61,4.17,3.76,7.16,.06,1.2,.32,2.41,.69,3.55,.69,2.11,.69,4.21,.4,6.37-.29,2.26-.57,4.52-.7,6.8-.16,2.77-.93,5.28-2.64,7.47-.58,.74-1.11,1.52-1.76,2.19-.48,.5-.81,1.04-1.07,1.67-.48,1.16-1.36,1.95-2.41,2.62-2.37,1.52-4.72,3.02-7.59,3.52-1.18,.2-2.21,.88-3.1,1.78-1.23,1.25-2.65,2.24-4.45,2.64-.63,.14-1.19,.6-1.79,.91-1.16,.61-1.8,1.57-2.01,2.86,.6,2.41,1.99,4.35,3.74,6.07,.19,.19,.41,.35,.61,.52,.77,.63,1.8,.71,2.63,.2,1.05-.64,1.92-1.44,2.61-2.47,.59-.89,1.29-1.71,1.96-2.55,.25-.31,.51-.74,.84-.84,1.78-.52,2.66-2.22,4.16-3.06,1.34-.75,2.35-1.71,3.04-3.09,.42-.83,1.01-1.59,1.58-2.33,.41-.53,.83-1.14,1.39-1.44,1.7-.9,2.79-2.5,4.32-3.59,.65-.46,1.17-1.1,1.74-1.66,1.09-1.08,1.83-2.31,1.72-3.93-.08-1.15,.46-2.06,1.24-2.88,.74-.78,1.39-1.64,2.17-2.37,1.25-1.18,1.71-2.7,2.05-4.29,.2-.95,.18-1.9-.27-2.76-1.25-2.38-1.4-4.85-.86-7.44,.28-1.34,.19-2.71-.62-3.88-.88-1.29-1.08-2.72-1.16-4.21-.1-1.74-.14-3.49-1.05-5.09-.42-.74-.22-1.56,0-2.35,.36-1.31-.12-2.33-1.09-3.24-1-.93-2.02-1.74-3.34-2.18-2.29-.76-4.37-2.05-6.73-2.64-.51-.13-.99-.41-1.48-.63-1.08-.48-1.78-1.36-1.81-2.48-.04-1.63-.49-3.19-.6-4.77-.14-1.98,.22-3.96,1.57-5.66,.92-1.16,1.78-2.23,3.08-3.07,1.8-1.16,3.42-2.57,5.51-3.26,.62-.2,1.15-.68,1.69-1.08,.54-.4,1.07-.82,1.55-1.28C95.11-.03,97.86-.22,100.73,.15c1.73,.22,3.43,.63,5.19,.69,1.57,.05,2.72,.96,3.6,2.27,1.33,2,1.74,4.21,1.46,6.54-.14,1.2-.45,2.38-.77,3.55-.5,1.86-.32,3.74-.22,5.62,.01,.27,.05,.55,.15,.79,.8,1.85,1.61,3.69,2.43,5.53,.11,.23,.3,.47,.51,.61,1.14,.73,2.42,1.08,3.74,1.3,.18,.03,.48-.24,.63-.44,.67-.89,.76-2,.99-3.04,.08-.36-.06-.8-.19-1.17-.45-1.26-.89-2.53-1.41-3.76-1.03-2.44-.4-4.53,1.47-6.19,1.01-.89,1.98-1.8,2.88-2.79,.35-.38,.84-.72,1.33-.86,1.18-.35,2.19-1.01,3.28-1.51,1.53-.71,2.73-1.64,3.55-3.12,.31-.57,.87-1.01,1.38-1.44,.86-.73,1.84-1.01,3-.75,1.96,.43,3.93,.81,5.91,1.12,.78,.12,1.62,.14,2.39,0,3.7-.62,7.4-1.31,11.35-2.01Zm-27.62,104.94c.36,1.01,.87,1.76,.84,2.5-.05,1.21,.36,2.13,1.23,2.82,1.48,1.18,2.67,2.64,4.02,3.95,1.25,1.22,2.5,2.45,3.88,3.52,1.25,.98,2.76,1.59,3.38,3.27,.2,.56,.9,.99,1.46,1.34,1.33,.83,2.07,2.08,2.63,3.46,.69,1.68,.77,3.34-.04,5.06-1.22,2.6-1.71,5.34-1.14,8.22,.16,.82,.02,1.64-.66,2.21-.74,.62-1.2,1.43-1.72,2.21-.54,.81-1.28,1.34-2.25,1.59-.78,.2-1.53,.51-2.3,.74-1.79,.54-3.36,1.65-5.28,1.9-.73,.09-1.42,.71-2.05,1.2-1.49,1.14-2.63,2.67-4.23,3.71-.68,.44-.95,1.35-.93,2.15,.03,1.2,.17,2.41,.42,3.58,.26,1.2,.41,2.36,.13,3.58-.14,.64-.08,1.33-.05,2,.04,.94,1.05,1.77,1.96,1.57,1.05-.23,2.1-.46,3.11-.82,1.79-.64,3.68-.67,5.52-1.02,1.22-.23,2.4,0,3.6,.21,.5,.09,1.06-.09,1.59-.14,.4-.04,.82-.16,1.2-.07,2.34,.54,4.72,1.06,6.85,2.18,1.3,.68,2.48,.75,3.86,.39,1.61-.41,2.99-1.24,4.26-2.21,1.06-.81,1.95-1.83,2.91-2.77,.42-.41,.49-.95,.42-1.49-.06-.39-.19-.79-.35-1.16-1.59-3.86-1.58-7.85-.97-11.9,.1-.66,.12-1.34,.24-2,.16-.94,.54-1.75,1.23-2.47,.83-.87,1.44-1.93,2.22-2.85,1.02-1.21,1.35-2.63,1.22-4.14-.09-1.06-.23-2.16-.61-3.14-.83-2.12-.27-3.95,.91-5.69,.83-1.22,1.71-2.43,2.97-3.26,.98-.64,1.4-1.59,1.64-2.67,.12-.52,.2-1.05,.31-1.58,.14-.68,.49-1.24,1.02-1.69,1.13-.95,2.27-1.89,3.4-2.85,.43-.36,.5-.94,.22-1.45-.27-.49-.69-1-1.23-.86-2.07,.55-4.22,.76-6.35,1.6-.54,1.45-1.57,2.73-1.97,4.32-.2,.8-.75,1.41-1.37,1.95-1.64,1.42-3.42,2.58-5.49,3.29-.51,.17-1.05,.29-1.49,.57-.6,.38-1.22,.42-1.89,.52-1.94,.27-3.7-.23-5.48-.91-1.25-.47-2.15-1.24-2.4-2.49-.3-1.49-.93-2.77-1.73-4.03-.57-.9-1.02-1.89-1.48-2.86-.23-.48-.49-1.01-.5-1.52-.06-2.14-.46-4.37,.38-6.38,.67-1.58,1.87-2.92,3.11-4.17,.63-.64,1.33-.8,2.17-.37,1.91,1,3.61,.62,5.14-.84,.48-.46,1.02-.87,1.45-1.37,.23-.26,.29-.67,.47-1.13-.84-.26-1.63-.41-2.33-.74-.84-.4-1.62-.95-2.42-1.44-.23-.14-.44-.31-.67-.45-1.62-1.03-3.32-1.73-5.31-1.56-.8,.07-1.62,.02-2.41-.12-1.56-.27-2.92,.21-4.26,.89-1.91,.97-3.79,2.01-5.71,2.94-1.44,.7-2.43,1.79-2.64,3.33-.19,1.4-.75,2.55-1.64,3.8Zm-47.84,8.45c-1.72,.77-3.29,1.78-4.69,3.03-.28,.25-.55,.64-.62,1-.34,1.77-1.72,3.02-2.28,4.69-.57,1.68-1.63,3.07-2.94,4.26-.09,.09-.17,.22-.19,.35-.27,1.37-1.17,2.34-2.01,3.4-1.47,1.87-1.36,3.99-.51,6.1,.14,.36,.41,.71,.71,.95,.63,.49,1.29,.96,1.98,1.34,1.19,.65,2.51,.91,3.85,1.12,1.39,.21,2.44,.92,3.31,2.06,1.38,1.81,2.84,3.56,4.42,5.19,.84,.87,1.78,1.62,2.26,2.77,.05,.12,.17,.21,.25,.31,.38,.48,1.21,.75,1.83,.51,2.36-.94,4.73-1.87,7.05-2.89,.43-.19,.79-.71,1.02-1.16,.57-1.12,1.31-2.04,2.5-2.51,.35-.14,.81-.33,1.12-.22,1.06,.36,1.87-.01,2.49-.79,1.89-2.38,4.43-3.83,7.01-5.3,1.86-1.06,2.99-.57,4.4,.53,.32,.25,.61,.52,.89,.81,1.03,1.05,1.96,2.19,2.95,3.27,1.87,2.05,3.53,2.5,5.62,.92,.86-.65,1.85-1.18,2.52-1.98,1.55-1.84,2.99-3.79,4.39-5.75,.72-1,.65-2.12-.11-2.99-1.43-1.63-2.8-3.27-3.1-5.52-.77-1.41-1.43-2.91-3.21-3.39-.92-.25-1.16-.98-1.18-1.87-.03-1.84-1.08-2.94-2.71-3.6-.5-.2-1.04-.34-1.47-.64-.93-.66-1.99-.78-3.06-.82-.8-.03-1.61,0-2.41-.02-.97-.02-1.85,.28-2.67,.78-.46,.28-.88,.61-1.34,.89-2.62,1.62-5.21,3.3-8.1,4.44-1.11,.43-2.08,.38-3.07-.18-1.64-.93-3.27-1.88-4.07-3.73-.21-.49-.32-1.04-.59-1.49-.35-.56-.75-1.13-1.25-1.55-1.64-1.39-3.43-2.17-5.43-.96-1.24-.48-2.37-.91-3.55-1.37Zm20.67-8.22c.57-.15,1.21-.4,1.86-.45,1.26-.09,2.31-.55,3.28-1.36,1.18-.99,2.53-1.48,4.11-1.12,.24,.06,.56,0,.79-.12,1.1-.53,2.07-.27,3.05,.34,.32,.2,.74,.26,1.19,.41,.32-.46,.67-.86,.91-1.33,1.13-2.2,1.43-4.61,1.58-7.03,.17-2.68,.47-5.36,.1-8.04-.13-.97,.01-1.91,.6-2.69,.92-1.2,1.1-2.78,1.97-3.94,.87-1.16,2.12-2.03,3.18-3.05,.29-.28,.51-.62,.79-.91,1.32-1.38,2.83-2.44,4.75-2.85,1.05-.23,2.06-.65,3.11-.84,1.91-.36,3.12-1.59,3.92-3.18,.72-1.43,1.18-2.99,1.7-4.51,.12-.36,.14-.84,0-1.18-.4-.99-.82-1.99-1.39-2.88-.53-.83-1.33-1.32-2.41-.97-2.31,.75-4.3,.03-5.85-1.64-.97-1.04-1.93-1.71-3.37-1.89-.9-.11-1.71-.74-2.6-1.04-.62-.21-1.3-.27-1.97-.33-.56-.05-1.27,.82-1.18,1.38,.02,.13,.07,.26,.11,.39,.7,2.7,.37,5.19-.77,7.8-1.21,2.78-2.59,5.63-2.14,8.87,.03,.22-.21,.47-.29,.65-1.59,1.4-3.4,2.29-5.35,2.85-1.89,.55-3.38,1.6-4.56,3.13-1.42,1.83-3.14,3.29-5.25,4.29-.48,.23-.93,.55-1.32,.91-1,.92-2.18,1.54-3.32,2.25-2.17,1.35-4.01,3.15-5.68,5.08-1.18,1.38-.95,3.4,.4,4.65,.39,.36,.75,.77,1.18,1.1,1.27,.98,2.48,1.98,3.17,3.51,.25,.56,.88,1.18,1.44,1.31,1.64,.4,2.69,1.76,4.27,2.43Zm65.71-53.2c.12,1.29,.3,1.85,.18,2.34-.34,1.4,.34,2.53,.69,3.79,.36,1.29,1.06,2.17,2.04,2.86,.98,.69,2.08,1.21,3.11,1.82,1.06,.62,2.15,.58,2.98-.25,1.31-1.31,2.88-1.85,4.65-2.13,.61-.1,1.17-.6,1.7-1,.63-.48,.49-1.71-.22-2.05-.6-.29-1.23-.5-1.86-.7-1.08-.35-1.83-1-2.32-2.06-.63-1.37-1.21-2.67-.67-4.23,.16-.46,.1-1.11-.1-1.57-1.38-3.11-1.79-6.44-2.27-9.75-.44-2.98-.5-5.92,1.84-8.31,.09-.09,.17-.21,.23-.33,.22-.5,.38-.99,.14-1.54-.37-.86-.63-1.78-1.09-2.59-1.11-1.92-2.48-3.49-5.05-3.23-.64,.07-1.38,0-1.95-.27-1.32-.62-2.57-.57-3.9-.13-1.01,.33-2.14,.38-3.09,.82-1.08,.5-2.12,1.2-3.02,1.98-1.22,1.06-2.52,1.99-3.93,2.77-.56,.31-.81,1.31-.39,1.76,1.08,1.14,1.52,2.49,1.57,4.02,0,.13,.04,.27,.04,.4-.01,1.3,.57,2.32,1.51,3.17,1.8,1.61,3.68,3.16,4.63,5.49,.05,.12,.17,.21,.27,.29,1.05,.88,1.78,2,2.41,3.2,.5,.95,1.7,1.47,1.85,2.59,.16,1.18,.04,2.39,.04,2.84Zm-117.83,17.7c.29-.7-.06-1.56-.45-2.44-.32-.72-.52-1.51-.71-2.28-.32-1.3-.57-2.62-.9-3.92-.71-2.75-2.64-4.61-4.75-6.29-.52-.41-1.3-.62-1.9-.23-1.57,1.02-3.08,2.12-4.61,3.21-.21,.15-.38,.39-.49,.63-.91,2.08-2.07,4.07-1.96,6.47,.07,1.47-.17,2.93,.05,4.41,.09,.63,.03,1.43-.3,1.94-1.54,2.33-2.71,4.93-5.14,6.59-1.12,.77-1.93,1.9-2.45,3.14-.98,2.35-1.96,4.69-3.25,6.9-.25,.42-.28,1.04-.25,1.55,.1,1.38,.63,2.54,1.72,3.5,1.65,1.46,3.72,2.07,5.65,2.96,.6,.28,1.29-.28,1.22-1-.05-.55-.08-1.03,.21-1.53,1.24-2.08,2.34-4.2,2.72-6.64,.19-1.21,.82-2.34,1.92-2.94,1.88-1.02,3.52-2.41,5.52-3.25,1.72-.72,3.33-1.69,5.19-2.1,.68-.15,1.19-.72,1.36-1.38,.61-2.32,1.47-4.59,1.58-7.3Zm-3.55,67.18c-.1,1.17-.14,1.44-.15,1.7-.04,.81,.71,1.61,1.49,1.54,3.85-.31,4.61-1.25,5.04-4.44,.09-.66,.11-1.34,.05-2.01-.16-1.73,.24-3.49-.4-5.19-.13-.35-.06-.81,.02-1.19,.36-1.72,.92-3.41,2.23-4.63,.81-.76,1.36-1.6,1.78-2.61,.87-2.1,1.89-4.14,2.78-6.23,.36-.85,.55-1.78,.8-2.68,.25-.94,.24-1.84-.28-2.72-.77-1.3-1.08-2.73-1.05-4.24,0-.4-.06-.8-.12-1.2-.17-1.14-.97-1.91-2.16-2.04-2.17-.24-4.28-.17-6.19,1.1-1,.67-2.06,1.25-3.07,1.9-1.18,.75-1.93,1.72-2.09,3.22-.14,1.32-.62,2.6-.97,3.89-.21,.78-.57,1.53-.67,2.31-.34,2.79-.87,5.56-.85,8.39,0,.96,.2,1.76,.78,2.6,1.13,1.65,2.05,3.44,3.04,5.18,.76,1.34,.96,2.74,.56,4.27-.33,1.29-.48,2.63-.56,3.06Zm125.81-55.71c-.24,.1-.52,.15-.72,.3-.51,.37-.86,1.29-.53,1.79,.66,.98,.77,1.91,.44,3.03-.32,1.07,.04,2.11,.68,3.04,1.08,1.58,3.63,1.41,4.34-.2,.16-.37,.35-.72,.52-1.09,.35-.78,.4-1.56-.05-2.31-.63-1.03-1.23-2.09-1.99-3.01-.49-.59-1.23-.99-1.9-1.42-.2-.13-.51-.09-.78-.12Z"/></g></svg>